<svg width="1205" height="253" viewBox="0 0 1205 253" fill="none" xmlns="http://www.w3.org/2000/svg">
<rect width="1205" height="253" fill="#268FCE"/>
<rect x="87" y="57" width="64" height="128" fill="#585858" fill-opacity="0.9"/>
<path d="M87 57H171C195.301 57 215 76.6995 215 101V101C215 125.301 195.301 145 171 145H87V57Z" fill="#FFFFFD" fill-opacity="0.85"/>
<path d="M274.715 183.491C265.944 183.491 258.415 181.734 252.13 178.218C245.88 174.667 241.086 169.731 237.748 163.41C234.41 157.053 232.741 149.685 232.741 141.304C232.741 132.923 234.41 125.572 237.748 119.251C241.086 112.895 245.88 107.959 252.13 104.443C258.415 100.892 265.944 99.1165 274.715 99.1165C283.487 99.1165 290.997 100.892 297.247 104.443C303.497 107.959 308.291 112.895 311.629 119.251C315.003 125.572 316.69 132.923 316.69 141.304C316.69 149.685 315.003 157.053 311.629 163.41C308.291 169.731 303.497 174.667 297.247 178.218C290.997 181.734 283.487 183.491 274.715 183.491ZM274.928 162.558C277.627 162.558 279.953 161.687 281.906 159.947C283.859 158.172 285.351 155.686 286.381 152.49C287.446 149.259 287.979 145.477 287.979 141.144C287.979 136.741 287.446 132.941 286.381 129.745C285.351 126.549 283.859 124.081 281.906 122.341C279.953 120.565 277.627 119.678 274.928 119.678C272.052 119.678 269.602 120.565 267.577 122.341C265.589 124.081 264.062 126.549 262.996 129.745C261.967 132.941 261.452 136.741 261.452 141.144C261.452 145.477 261.967 149.259 262.996 152.49C264.062 155.686 265.589 158.172 267.577 159.947C269.602 161.687 272.052 162.558 274.928 162.558ZM350.921 182L330.094 100.182H358.272L368.286 150.999H368.925L379.898 100.182H407.331L418.677 150.626H419.316L428.957 100.182H457.082L436.308 182H406.052L394.067 136.67H393.162L381.177 182H350.921ZM512.341 183.491C503.676 183.491 496.201 181.822 489.915 178.484C483.665 175.111 478.853 170.281 475.48 163.996C472.142 157.675 470.473 150.129 470.473 141.357C470.473 132.906 472.16 125.519 475.533 119.198C478.907 112.842 483.665 107.906 489.809 104.39C495.988 100.874 503.267 99.1165 511.648 99.1165C517.685 99.1165 523.172 100.058 528.108 101.94C533.044 103.822 537.287 106.574 540.838 110.196C544.39 113.783 547.124 118.168 549.042 123.353C550.959 128.538 551.918 134.415 551.918 140.984V147.696H479.581V131.929H525.924C525.888 129.408 525.267 127.188 524.059 125.271C522.887 123.317 521.272 121.808 519.212 120.743C517.152 119.642 514.826 119.092 512.234 119.092C509.642 119.092 507.28 119.66 505.15 120.796C503.054 121.897 501.385 123.424 500.142 125.377C498.9 127.295 498.243 129.532 498.172 132.089V148.761C498.172 151.673 498.758 154.248 499.929 156.485C501.137 158.687 502.824 160.427 504.99 161.705C507.191 162.948 509.837 163.57 512.927 163.57C515.057 163.57 516.993 163.268 518.733 162.664C520.508 162.06 522.017 161.19 523.26 160.054C524.539 158.918 525.48 157.533 526.084 155.899L551.811 156.165C550.853 161.705 548.669 166.535 545.26 170.654C541.851 174.738 537.358 177.898 531.783 180.136C526.208 182.373 519.727 183.491 512.341 183.491ZM572.966 182V100.182H600.238V115.469H601.091C602.582 109.859 604.979 105.739 608.282 103.112C611.584 100.448 615.437 99.1165 619.841 99.1165C621.119 99.1165 622.38 99.2053 623.623 99.3828C624.901 99.5604 626.108 99.8089 627.245 100.129V124.312C625.86 123.85 624.12 123.495 622.025 123.246C619.965 122.998 618.172 122.874 616.645 122.874C613.662 122.874 610.998 123.531 608.655 124.844C606.311 126.158 604.464 128.005 603.115 130.384C601.765 132.763 601.091 135.533 601.091 138.694V182H572.966ZM705.235 106.467C704.915 102.774 703.495 99.8977 700.974 97.8381C698.452 95.7784 694.724 94.7486 689.788 94.7486C686.592 94.7486 683.964 95.157 681.904 95.9737C679.844 96.755 678.3 97.8203 677.27 99.1697C676.276 100.519 675.778 102.064 675.778 103.804C675.707 105.224 675.974 106.503 676.577 107.639C677.181 108.776 678.122 109.788 679.401 110.675C680.714 111.528 682.33 112.309 684.248 113.019C686.165 113.694 688.403 114.298 690.959 114.83L700.068 116.854C705.856 118.062 710.864 119.695 715.089 121.755C719.315 123.779 722.813 126.194 725.583 128.999C728.353 131.769 730.413 134.912 731.762 138.428C733.147 141.943 733.857 145.814 733.893 150.04C733.857 157.107 732.082 163.126 728.566 168.097C725.05 173.033 720.026 176.815 713.491 179.443C706.957 182.036 699.109 183.332 689.947 183.332C680.572 183.332 672.405 181.947 665.445 179.177C658.52 176.371 653.14 172.11 649.305 166.393C645.469 160.64 643.516 153.325 643.445 144.447H670.452C670.665 147.82 671.552 150.661 673.115 152.969C674.677 155.278 676.844 157.036 679.614 158.243C682.419 159.415 685.722 160.001 689.521 160.001C692.824 160.001 695.611 159.575 697.884 158.722C700.192 157.87 701.932 156.698 703.104 155.207C704.312 153.68 704.933 151.94 704.969 149.987C704.933 148.175 704.347 146.613 703.211 145.299C702.11 143.95 700.334 142.76 697.884 141.73C695.434 140.665 692.185 139.688 688.136 138.8L677.11 136.35C667.522 134.219 659.958 130.704 654.418 125.803C648.914 120.903 646.18 114.244 646.215 105.828C646.18 98.9744 648.026 92.973 651.755 87.8239C655.484 82.6392 660.633 78.6087 667.202 75.7322C673.772 72.8558 681.318 71.4176 689.841 71.4176C698.506 71.4176 706.016 72.8736 712.373 75.7855C718.729 78.6974 723.648 82.799 727.128 88.0902C730.608 93.3459 732.366 99.4716 732.401 106.467H705.235ZM772.772 212.682C769.469 212.682 766.344 212.433 763.397 211.936C760.449 211.439 757.892 210.764 755.726 209.912L761.852 189.777C764.338 190.629 766.593 191.162 768.617 191.375C770.641 191.588 772.381 191.375 773.837 190.736C775.328 190.097 776.429 188.925 777.139 187.22L777.885 185.356L749.014 100.182H778.418L792.321 157.497H793.173L807.289 100.182H836.905L806.703 189.191C805.176 193.701 803.027 197.714 800.257 201.229C797.487 204.781 793.865 207.568 789.391 209.592C784.916 211.652 779.377 212.682 772.772 212.682ZM882.469 135.711V182H854.344V100.182H881.031V115.523H881.936C883.712 110.409 886.819 106.396 891.258 103.484C895.697 100.572 900.935 99.1165 906.972 99.1165C912.725 99.1165 917.732 100.43 921.993 103.058C926.29 105.651 929.61 109.255 931.954 113.871C934.298 118.488 935.47 123.797 935.47 129.798V182H907.345V135.604C907.345 131.379 906.262 128.058 904.095 125.643C901.929 123.229 898.928 122.021 895.093 122.021C892.536 122.021 890.299 122.572 888.382 123.673C886.499 124.773 885.044 126.354 884.014 128.413C883.019 130.437 882.504 132.87 882.469 135.711ZM1006.85 100.182V120.69H953.801V100.182H1006.85ZM964.401 80.5795H992.526V155.899C992.526 157.213 992.739 158.296 993.165 159.148C993.627 160.001 994.284 160.622 995.136 161.013C996.024 161.368 997.142 161.545 998.492 161.545C999.415 161.545 1000.44 161.457 1001.58 161.279C1002.75 161.066 1003.62 160.888 1004.19 160.746L1008.35 180.668C1007.07 181.059 1005.24 181.521 1002.86 182.053C1000.52 182.621 997.711 182.994 994.443 183.172C987.945 183.491 982.441 182.781 977.931 181.041C973.456 179.301 970.065 176.567 967.757 172.838C965.448 169.074 964.33 164.369 964.401 158.722V80.5795ZM1057.65 135.711V182H1029.53V72.9091H1056.64V115.523H1057.55C1059.39 110.374 1062.45 106.361 1066.71 103.484C1070.97 100.572 1076.14 99.1165 1082.21 99.1165C1087.96 99.1165 1092.97 100.413 1097.23 103.005C1101.53 105.597 1104.85 109.202 1107.19 113.818C1109.57 118.435 1110.74 123.761 1110.71 129.798V182H1082.58V135.604C1082.62 131.343 1081.55 128.023 1079.39 125.643C1077.25 123.229 1074.22 122.021 1070.28 122.021C1067.79 122.021 1065.59 122.572 1063.67 123.673C1061.75 124.773 1060.28 126.354 1059.25 128.413C1058.22 130.437 1057.69 132.87 1057.65 135.711Z" fill="white"/>
</svg>
